<svg width="36" height="37" viewBox="0 0 36 37" fill="currentColor" xmlns="http://www.w3.org/2000/svg">
<path d="M30 15.5L27.7717 26.6414C27.4968 28.0158 27.3594 28.7031 27.0005 29.2172C26.6841 29.6705 26.2485 30.0275 25.742 30.2489C25.1675 30.5 24.4667 30.5 23.0649 30.5H12.9351C11.5333 30.5 10.8325 30.5 10.258 30.2489C9.75146 30.0275 9.31591 29.6705 8.99947 29.2172C8.64062 28.7031 8.50318 28.0158 8.22828 26.6414L6 15.5" stroke="white" stroke-width="3" stroke-linecap="round" stroke-linejoin="round"/>
<path d="M4.5 15.5H31.5" stroke="white" stroke-width="3" stroke-linecap="round" stroke-linejoin="round"/>
<path d="M12 20V20.0149" stroke="white" stroke-width="3" stroke-linecap="round" stroke-linejoin="round"/>
<path d="M24 20V20.0149" stroke="white" stroke-width="3" stroke-linecap="round" stroke-linejoin="round"/>
<path d="M9 6.5L13.5 15.5" stroke="white" stroke-width="3" stroke-linecap="round" stroke-linejoin="round"/>
<path d="M22.5 6.5L27 15.5" stroke="white" stroke-width="3" stroke-linecap="round" stroke-linejoin="round"/>
</svg>
