<svg width="36" height="36" viewBox="0 0 36 36" fill="none" xmlns="http://www.w3.org/2000/svg">
<path fill-rule="evenodd" clip-rule="evenodd" d="M18 6C13.069 6 9 10.1236 9 15.3C9 17.8199 10.1039 20.2044 11.982 22.7127C13.5699 24.8336 15.6023 26.9071 17.7936 29.1429C17.8622 29.2129 17.931 29.2831 18 29.3535C18.069 29.2831 18.1378 29.2129 18.2064 29.1429C20.3977 26.9071 22.4301 24.8336 24.018 22.7127C25.8961 20.2044 27 17.8199 27 15.3C27 10.1236 22.931 6 18 6ZM6 15.3C6 8.54701 11.333 3 18 3C24.667 3 30 8.54701 30 15.3C30 18.7448 28.4789 21.7603 26.4195 24.5108C24.7006 26.8064 22.5004 29.0498 20.3117 31.2815C19.8981 31.7032 19.4849 32.1245 19.0755 32.5456C18.7931 32.8361 18.4052 33 18 33C17.5948 33 17.2069 32.8361 16.9245 32.5456C16.5151 32.1245 16.1019 31.7032 15.6883 31.2815C13.4996 29.0498 11.2994 26.8065 9.58052 24.5108C7.52109 21.7603 6 18.7448 6 15.3ZM18 12C16.3431 12 15 13.3431 15 15C15 16.6569 16.3431 18 18 18C19.6569 18 21 16.6569 21 15C21 13.3431 19.6569 12 18 12ZM12 15C12 11.6863 14.6863 9 18 9C21.3137 9 24 11.6863 24 15C24 18.3137 21.3137 21 18 21C14.6863 21 12 18.3137 12 15Z" fill="#F2F2F2"/>
</svg>
