<svg width="93" height="28" viewBox="0 0 93 28" fill="none" xmlns="http://www.w3.org/2000/svg">
<path d="M23.434 0.774V27H20.266C19.798 27 19.402 26.928 19.078 26.784C18.766 26.628 18.454 26.364 18.142 25.992L5.776 10.35C5.824 10.818 5.854 11.274 5.866 11.718C5.89 12.15 5.902 12.558 5.902 12.942V27H0.538V0.774H3.742C4.006 0.774 4.228 0.786 4.408 0.809999C4.588 0.833999 4.75 0.881999 4.894 0.954C5.038 1.014 5.176 1.104 5.308 1.224C5.44 1.344 5.59 1.506 5.758 1.71L18.232 17.46C18.172 16.956 18.13 16.47 18.106 16.002C18.082 15.522 18.07 15.072 18.07 14.652V0.774H23.434ZM54.2624 13.878C54.2624 15.774 53.9324 17.538 53.2724 19.17C52.6244 20.802 51.7064 22.224 50.5184 23.436C49.3304 24.636 47.8964 25.578 46.2164 26.262C44.5484 26.946 42.6944 27.288 40.6544 27.288C38.6144 27.288 36.7544 26.946 35.0744 26.262C33.3944 25.578 31.9544 24.636 30.7544 23.436C29.5664 22.224 28.6424 20.802 27.9824 19.17C27.3344 17.538 27.0104 15.774 27.0104 13.878C27.0104 11.982 27.3344 10.218 27.9824 8.586C28.6424 6.954 29.5664 5.538 30.7544 4.338C31.9544 3.138 33.3944 2.196 35.0744 1.512C36.7544 0.827999 38.6144 0.485999 40.6544 0.485999C42.6944 0.485999 44.5484 0.833999 46.2164 1.53C47.8964 2.214 49.3304 3.156 50.5184 4.356C51.7064 5.556 52.6244 6.972 53.2724 8.604C53.9324 10.236 54.2624 11.994 54.2624 13.878ZM48.0344 13.878C48.0344 12.582 47.8664 11.418 47.5304 10.386C47.1944 9.342 46.7084 8.46 46.0724 7.74C45.4484 7.02 44.6804 6.468 43.7684 6.084C42.8564 5.7 41.8184 5.508 40.6544 5.508C39.4784 5.508 38.4284 5.7 37.5044 6.084C36.5924 6.468 35.8184 7.02 35.1824 7.74C34.5584 8.46 34.0784 9.342 33.7424 10.386C33.4064 11.418 33.2384 12.582 33.2384 13.878C33.2384 15.186 33.4064 16.362 33.7424 17.406C34.0784 18.438 34.5584 19.314 35.1824 20.034C35.8184 20.754 36.5924 21.306 37.5044 21.69C38.4284 22.062 39.4784 22.248 40.6544 22.248C41.8184 22.248 42.8564 22.062 43.7684 21.69C44.6804 21.306 45.4484 20.754 46.0724 20.034C46.7084 19.314 47.1944 18.438 47.5304 17.406C47.8664 16.362 48.0344 15.186 48.0344 13.878ZM92.9047 0.774L84.8047 27H79.2967L74.3647 10.746C74.2687 10.494 74.1787 10.218 74.0947 9.918C74.0107 9.606 73.9267 9.282 73.8427 8.946C73.7587 9.282 73.6747 9.606 73.5907 9.918C73.5067 10.218 73.4167 10.494 73.3207 10.746L68.3167 27H62.8087L54.7087 0.774H59.8207C60.3487 0.774 60.7867 0.894 61.1347 1.134C61.4947 1.374 61.7287 1.692 61.8367 2.088L65.4367 15.768C65.5447 16.2 65.6527 16.674 65.7607 17.19C65.8687 17.694 65.9767 18.222 66.0847 18.774C66.3007 17.646 66.5647 16.644 66.8767 15.768L71.1247 2.088C71.2327 1.752 71.4607 1.452 71.8087 1.188C72.1687 0.912 72.6007 0.774 73.1047 0.774H74.9047C75.4327 0.774 75.8587 0.899999 76.1827 1.152C76.5067 1.392 76.7527 1.704 76.9207 2.088L81.1327 15.768C81.4447 16.608 81.7087 17.562 81.9247 18.63C82.0207 18.09 82.1167 17.586 82.2127 17.118C82.3207 16.638 82.4287 16.188 82.5367 15.768L86.1367 2.088C86.2327 1.74 86.4607 1.434 86.8207 1.17C87.1807 0.905999 87.6127 0.774 88.1167 0.774H92.9047Z" fill="white"/>
</svg>
