<svg width="36" height="36" viewBox="0 0 36 36" fill="none" xmlns="http://www.w3.org/2000/svg">
<g clip-path="url(#clip0_369_279)">
<mask id="mask0_369_279" style="mask-type:luminance" maskUnits="userSpaceOnUse" x="0" y="0" width="36" height="36">
<path fill-rule="evenodd" clip-rule="evenodd" d="M0 0H36V36H0V0Z" fill="white"/>
</mask>
<g mask="url(#mask0_369_279)">
<path fill-rule="evenodd" clip-rule="evenodd" d="M4.5 8.25C4.5 7.67066 4.5212 7.09629 4.56283 6.52759C4.61062 5.87492 4.63451 5.5486 4.80556 5.25155C4.9472 5.00552 5.19825 4.77219 5.45396 4.64888C5.76271 4.5 6.12281 4.5 6.84303 4.5H11.069C11.6746 4.5 11.9774 4.5 12.237 4.59968C12.4664 4.68773 12.6705 4.83072 12.8316 5.01613C13.014 5.22606 13.1175 5.51064 13.3245 6.07982L15.0737 10.8901C15.3145 11.5523 15.4349 11.8834 15.4144 12.1975C15.3964 12.4746 15.3019 12.7411 15.1413 12.9676C14.9593 13.2244 14.6572 13.4057 14.053 13.7682L12 15C13.8029 18.9733 17.0252 22.1999 21 24L22.2318 21.947C22.5943 21.3428 22.7756 21.0407 23.0324 20.8587C23.2589 20.6981 23.5254 20.6036 23.8025 20.5856C24.1166 20.5651 24.4477 20.6855 25.1099 20.9263L29.9202 22.6755C30.4894 22.8825 30.7739 22.986 30.9838 23.1684C31.1693 23.3295 31.3123 23.5336 31.4003 23.763C31.5 24.0226 31.5 24.3254 31.5 24.931V29.157C31.5 29.8772 31.5 30.2373 31.3511 30.546C31.2278 30.8018 30.9945 31.0528 30.7485 31.1944C30.4514 31.3655 30.1251 31.3894 29.4724 31.4372C28.9037 31.4788 28.3293 31.5 27.75 31.5C14.9094 31.5 4.5 21.0906 4.5 8.25V8.25Z" stroke="white" stroke-width="3" stroke-linecap="round" stroke-linejoin="round"/>
</g>
</g>
<defs>
<clipPath id="clip0_369_279">
<rect width="36" height="36" fill="white"/>
</clipPath>
</defs>
</svg>
