<svg width="200" height="100" viewBox="0 0 200 100" fill="none" xmlns="http://www.w3.org/2000/svg">
<rect width="200" height="100" fill="#1C1D24"/>
<path d="M60.216 27.376V74H54.584C53.752 74 53.048 73.872 52.472 73.616C51.9173 73.3387 51.3627 72.8693 50.808 72.208L28.824 44.4C28.9093 45.232 28.9627 46.0427 28.984 46.832C29.0267 47.6 29.048 48.3253 29.048 49.008V74H19.512V27.376H25.208C25.6773 27.376 26.072 27.3973 26.392 27.44C26.712 27.4827 27 27.568 27.256 27.696C27.512 27.8027 27.7573 27.9627 27.992 28.176C28.2267 28.3893 28.4933 28.6773 28.792 29.04L50.968 57.04C50.8613 56.144 50.7867 55.28 50.744 54.448C50.7013 53.5947 50.68 52.7947 50.68 52.048V27.376H60.216ZM115.022 50.672C115.022 54.0427 114.435 57.1787 113.262 60.08C112.11 62.9813 110.478 65.5093 108.366 67.664C106.254 69.7973 103.705 71.472 100.718 72.688C97.7527 73.904 94.4567 74.512 90.83 74.512C87.2033 74.512 83.8967 73.904 80.91 72.688C77.9233 71.472 75.3633 69.7973 73.23 67.664C71.118 65.5093 69.4753 62.9813 68.302 60.08C67.15 57.1787 66.574 54.0427 66.574 50.672C66.574 47.3013 67.15 44.1653 68.302 41.264C69.4753 38.3627 71.118 35.8453 73.23 33.712C75.3633 31.5787 77.9233 29.904 80.91 28.688C83.8967 27.472 87.2033 26.864 90.83 26.864C94.4567 26.864 97.7527 27.4827 100.718 28.72C103.705 29.936 106.254 31.6107 108.366 33.744C110.478 35.8773 112.11 38.3947 113.262 41.296C114.435 44.1973 115.022 47.3227 115.022 50.672ZM103.95 50.672C103.95 48.368 103.651 46.2987 103.054 44.464C102.457 42.608 101.593 41.04 100.462 39.76C99.3527 38.48 97.9873 37.4987 96.366 36.816C94.7447 36.1333 92.8993 35.792 90.83 35.792C88.7393 35.792 86.8727 36.1333 85.23 36.816C83.6087 37.4987 82.2327 38.48 81.102 39.76C79.9927 41.04 79.1393 42.608 78.542 44.464C77.9447 46.2987 77.646 48.368 77.646 50.672C77.646 52.9973 77.9447 55.088 78.542 56.944C79.1393 58.7787 79.9927 60.336 81.102 61.616C82.2327 62.896 83.6087 63.8773 85.23 64.56C86.8727 65.2213 88.7393 65.552 90.83 65.552C92.8993 65.552 94.7447 65.2213 96.366 64.56C97.9873 63.8773 99.3527 62.896 100.462 61.616C101.593 60.336 102.457 58.7787 103.054 56.944C103.651 55.088 103.95 52.9973 103.95 50.672ZM183.72 27.376L169.32 74H159.528L150.76 45.104C150.589 44.656 150.429 44.1653 150.28 43.632C150.13 43.0773 149.981 42.5013 149.832 41.904C149.682 42.5013 149.533 43.0773 149.384 43.632C149.234 44.1653 149.074 44.656 148.904 45.104L140.008 74H130.216L115.816 27.376H124.904C125.842 27.376 126.621 27.5893 127.24 28.016C127.88 28.4427 128.296 29.008 128.488 29.712L134.888 54.032C135.08 54.8 135.272 55.6427 135.464 56.56C135.656 57.456 135.848 58.3947 136.04 59.376C136.424 57.3707 136.893 55.5893 137.448 54.032L145 29.712C145.192 29.1147 145.597 28.5813 146.216 28.112C146.856 27.6213 147.624 27.376 148.52 27.376H151.72C152.658 27.376 153.416 27.6 153.992 28.048C154.568 28.4747 155.005 29.0293 155.304 29.712L162.792 54.032C163.346 55.5253 163.816 57.2213 164.2 59.12C164.37 58.16 164.541 57.264 164.712 56.432C164.904 55.5787 165.096 54.7787 165.288 54.032L171.688 29.712C171.858 29.0933 172.264 28.5493 172.904 28.08C173.544 27.6107 174.312 27.376 175.208 27.376H183.72Z" fill="white"/>
</svg>
